<svg width="40" height="41" viewBox="0 0 40 41" fill="none" xmlns="http://www.w3.org/2000/svg">
<circle cx="20" cy="20.3853" r="20" fill="#D9D9D9"/>
<path fill-rule="evenodd" clip-rule="evenodd" d="M21.0171 12.5886C21.0171 11.8397 20.4101 11.2327 19.6612 11.2327C18.9124 11.2327 18.3053 11.8397 18.3053 12.5886V18.6903H12.2036C11.4547 18.6903 10.8477 19.2974 10.8477 20.0462C10.8477 20.7951 11.4547 21.4022 12.2036 21.4022H18.3053V28.1818C18.3053 28.9307 18.9124 29.5378 19.6612 29.5378C20.4101 29.5378 21.0171 28.9307 21.0171 28.1818V21.4022H27.7968C28.5457 21.4022 29.1527 20.7951 29.1527 20.0462C29.1527 19.2974 28.5457 18.6903 27.7968 18.6903H21.0171V12.5886Z" fill="black"/>
</svg>
