<svg width="27" height="26" viewBox="0 0 27 26" fill="none" xmlns="http://www.w3.org/2000/svg">
<path d="M23.3621 0.0429688C24.1046 0.0429688 24.8168 0.337944 25.3418 0.863004C25.8669 1.38806 26.1619 2.1002 26.1619 2.84275V22.4412C26.1619 23.1837 25.8669 23.8959 25.3418 24.4209C24.8168 24.946 24.1046 25.241 23.3621 25.241H3.76364C3.0211 25.241 2.30896 24.946 1.7839 24.4209C1.25884 23.8959 0.963867 23.1837 0.963867 22.4412V2.84275C0.963867 2.1002 1.25884 1.38806 1.7839 0.863004C2.30896 0.337944 3.0211 0.0429688 3.76364 0.0429688H23.3621ZM22.6621 21.7412V14.3218C22.6621 13.1115 22.1813 11.9507 21.3255 11.0949C20.4696 10.239 19.3089 9.75819 18.0985 9.75819C16.9086 9.75819 15.5227 10.4861 14.8508 11.578V10.0242H10.9451V21.7412H14.8508V14.8398C14.8508 13.7619 15.7187 12.8799 16.7966 12.8799C17.3164 12.8799 17.8149 13.0864 18.1824 13.454C18.55 13.8215 18.7565 14.32 18.7565 14.8398V21.7412H22.6621ZM6.39543 7.82635C7.01917 7.82635 7.61737 7.57857 8.05842 7.13752C8.49947 6.69647 8.74725 6.09828 8.74725 5.47454C8.74725 4.17264 7.69733 3.10872 6.39543 3.10872C5.76798 3.10872 5.16623 3.35798 4.72255 3.80165C4.27888 4.24533 4.02962 4.84708 4.02962 5.47454C4.02962 6.77643 5.09354 7.82635 6.39543 7.82635ZM8.34128 21.7412V10.0242H4.46359V21.7412H8.34128Z" fill="#0192FE"/>
</svg>
