<svg width="29" height="29" viewBox="0 0 29 29" fill="none" xmlns="http://www.w3.org/2000/svg">
<path d="M16.1981 0.644301C17.2196 0.640381 18.2412 0.650647 19.2624 0.675098L19.534 0.684897C19.8476 0.696096 20.1569 0.710095 20.5307 0.726894C22.0202 0.796888 23.0365 1.03207 23.9282 1.37784C24.8522 1.73341 25.6305 2.21498 26.4088 2.99331C27.1205 3.69271 27.6713 4.53872 28.0229 5.47252C28.3687 6.36425 28.6039 7.38196 28.6739 8.87145C28.6907 9.24382 28.7047 9.55459 28.7159 9.86817L28.7243 10.1397C28.7491 11.1605 28.7599 12.1816 28.7565 13.2027L28.7579 14.247V16.0809C28.7613 17.1024 28.7506 18.124 28.7257 19.1452L28.7173 19.4168C28.7061 19.7304 28.6921 20.0398 28.6753 20.4135C28.6053 21.903 28.3673 22.9193 28.0229 23.8111C27.6725 24.7458 27.1215 25.5926 26.4088 26.2917C25.7088 27.0033 24.8624 27.554 23.9282 27.9057C23.0365 28.2515 22.0202 28.4867 20.5307 28.5567C20.1569 28.5735 19.8476 28.5875 19.534 28.5987L19.2624 28.6071C18.2412 28.632 17.2196 28.6427 16.1981 28.6393L15.1537 28.6407H13.3213C12.2997 28.6441 11.2782 28.6334 10.2569 28.6085L9.98535 28.6001C9.65303 28.588 9.32079 28.574 8.98863 28.5581C7.49915 28.4881 6.48283 28.2501 5.5897 27.9057C4.65553 27.5548 3.80938 27.004 3.1105 26.2917C2.39802 25.5921 1.84671 24.7456 1.49503 23.8111C1.14925 22.9193 0.914073 21.903 0.844078 20.4135C0.828488 20.0814 0.814489 19.7491 0.802082 19.4168L0.795082 19.1452C0.769274 18.124 0.757607 17.1024 0.760085 16.0809V13.2027C0.756178 12.1816 0.766445 11.1605 0.790883 10.1397L0.800682 9.86817C0.811881 9.55459 0.82588 9.24382 0.842679 8.87145C0.912673 7.38056 1.14785 6.36565 1.49363 5.47252C1.84552 4.53826 2.3979 3.69248 3.1119 2.99471C3.81029 2.28182 4.65592 1.73002 5.5897 1.37784C6.48283 1.03207 7.49775 0.796888 8.98863 0.726894L9.98535 0.684897L10.2569 0.677898C11.2777 0.652102 12.2988 0.640435 13.3199 0.642901L16.1981 0.644301ZM14.759 7.64374C13.8316 7.63063 12.9108 7.80196 12.0502 8.1478C11.1895 8.49363 10.4062 9.00707 9.74575 9.65826C9.08528 10.3095 8.56082 11.0854 8.20286 11.9411C7.84488 12.7967 7.66054 13.715 7.66054 14.6425C7.66054 15.57 7.84488 16.4883 8.20286 17.3439C8.56082 18.1996 9.08528 18.9755 9.74575 19.6267C10.4062 20.2779 11.1895 20.7913 12.0502 21.1372C12.9108 21.483 13.8316 21.6543 14.759 21.6412C16.6153 21.6412 18.3957 20.9038 19.7083 19.5911C21.021 18.2785 21.7584 16.4982 21.7584 14.6418C21.7584 12.7854 21.021 11.0051 19.7083 9.69243C18.3957 8.37978 16.6153 7.64374 14.759 7.64374ZM14.759 10.4435C15.3168 10.4332 15.8712 10.5342 16.3896 10.7406C16.908 10.9469 17.38 11.2545 17.7782 11.6454C18.1764 12.0362 18.4927 12.5025 18.7087 13.017C18.9246 13.5315 19.0359 14.0838 19.036 14.6418C19.0361 15.1997 18.925 15.7521 18.7092 16.2667C18.4934 16.7812 18.1773 17.2476 17.7792 17.6386C17.3812 18.0296 16.9092 18.3373 16.3909 18.5438C15.8725 18.7504 15.3182 18.8515 14.7604 18.8415C13.6466 18.8415 12.5783 18.399 11.7908 17.6114C11.0032 16.8238 10.5607 15.7556 10.5607 14.6418C10.5607 13.528 11.0032 12.4598 11.7908 11.6722C12.5783 10.8846 13.6466 10.4421 14.7604 10.4421L14.759 10.4435ZM22.1084 5.54391C21.6568 5.56199 21.2297 5.75411 20.9165 6.08003C20.6034 6.40595 20.4285 6.8404 20.4285 7.29237C20.4285 7.74435 20.6034 8.17879 20.9165 8.50472C21.2297 8.83064 21.6568 9.02276 22.1084 9.04083C22.5725 9.04083 23.0176 8.85647 23.3457 8.52831C23.6739 8.20015 23.8582 7.75506 23.8582 7.29097C23.8582 6.82688 23.6739 6.3818 23.3457 6.05363C23.0176 5.72547 22.5725 5.54111 22.1084 5.54111V5.54391Z" fill="#0192FE"/>
</svg>
