<svg width="29" height="30" viewBox="0 0 29 30" fill="none" xmlns="http://www.w3.org/2000/svg">
<path d="M14.5 0.12207C11.6322 0.12207 8.82875 0.97248 6.44424 2.56576C4.05972 4.15904 2.20122 6.42363 1.10375 9.07316C0.00628258 11.7227 -0.280866 14.6382 0.27862 17.4509C0.838105 20.2636 2.2191 22.8473 4.24696 24.8751C6.27482 26.903 8.85847 28.284 11.6712 28.8434C14.4839 29.4029 17.3994 29.1158 20.0489 28.0183C22.6984 26.9208 24.963 25.0623 26.5563 22.6778C28.1496 20.2933 29 17.4899 29 14.6221C28.9959 10.7777 27.467 7.0919 24.7486 4.37351C22.0302 1.65511 18.3444 0.12613 14.5 0.12207ZM20.8661 12.0651L13.0584 19.8727C12.9548 19.9764 12.8318 20.0587 12.6964 20.1148C12.561 20.171 12.4158 20.1999 12.2692 20.1999C12.1227 20.1999 11.9775 20.171 11.8421 20.1148C11.7067 20.0587 11.5837 19.9764 11.4801 19.8727L8.13395 16.5266C7.92465 16.3173 7.80708 16.0334 7.80708 15.7375C7.80708 15.4415 7.92465 15.1576 8.13395 14.9483C8.34324 14.739 8.6271 14.6214 8.92308 14.6214C9.21906 14.6214 9.50292 14.739 9.71222 14.9483L12.2692 17.5067L19.2878 10.4868C19.3914 10.3831 19.5144 10.3009 19.6498 10.2449C19.7852 10.1888 19.9304 10.1599 20.0769 10.1599C20.2235 10.1599 20.3686 10.1888 20.504 10.2449C20.6394 10.3009 20.7624 10.3831 20.8661 10.4868C20.9697 10.5904 21.0519 10.7134 21.108 10.8488C21.1641 10.9842 21.1929 11.1294 21.1929 11.2759C21.1929 11.4225 21.1641 11.5676 21.108 11.703C21.0519 11.8384 20.9697 11.9614 20.8661 12.0651Z" fill="#C0C0C0"/>
</svg>
