<svg width="48" height="48" viewBox="0 0 48 48" fill="none" xmlns="http://www.w3.org/2000/svg">
<circle cx="23.626" cy="24.0898" r="23.5" fill="#F0F6FF"/>
<path d="M23.6263 14.1201C21.5495 14.1225 19.5584 14.9485 18.0899 16.4171C16.6214 17.8856 15.7953 19.8767 15.793 21.9535C15.793 28.6564 22.9142 33.7188 23.2177 33.9306C23.3375 34.0145 23.4801 34.0595 23.6263 34.0595C23.7725 34.0595 23.9151 34.0145 24.0349 33.9306C24.3384 33.7188 31.4596 28.6564 31.4596 21.9535C31.4573 19.8767 30.6312 17.8856 29.1627 16.4171C27.6942 14.9485 25.7031 14.1225 23.6263 14.1201ZM23.6263 19.105C24.1897 19.105 24.7404 19.2721 25.2088 19.5851C25.6773 19.8981 26.0424 20.343 26.258 20.8635C26.4736 21.3839 26.53 21.9567 26.4201 22.5092C26.3101 23.0618 26.0389 23.5694 25.6405 23.9677C25.2421 24.3661 24.7346 24.6374 24.182 24.7473C23.6295 24.8572 23.0567 24.8008 22.5362 24.5852C22.0157 24.3696 21.5709 24.0045 21.2579 23.5361C20.9449 23.0676 20.7778 22.5169 20.7778 21.9535C20.7778 21.1981 21.0779 20.4735 21.6121 19.9393C22.1463 19.4051 22.8708 19.105 23.6263 19.105Z" fill="#0192FE"/>
</svg>
