<svg width="165" height="26" viewBox="0 0 165 26" fill="none" xmlns="http://www.w3.org/2000/svg">
<path d="M25.8628 9.30321L18.0685 8.16263L14.5842 1.05021C14.4891 0.855478 14.3325 0.697836 14.1391 0.602015C13.6541 0.360916 13.0647 0.561832 12.8221 1.05021L9.33789 8.16263L1.5436 9.30321C1.32871 9.33412 1.13224 9.43612 0.981817 9.59068C0.799966 9.77888 0.699758 10.0321 0.703211 10.2946C0.706665 10.5572 0.813498 10.8076 1.00024 10.9909L6.63951 16.5269L5.30721 24.3441C5.27596 24.5259 5.29595 24.7129 5.36489 24.8839C5.43384 25.0549 5.54899 25.203 5.69728 25.3115C5.84558 25.4199 6.02109 25.4844 6.2039 25.4975C6.38672 25.5106 6.56953 25.4719 6.73161 25.3857L13.7032 21.6951L20.6748 25.3857C20.8651 25.4877 21.0861 25.5217 21.2979 25.4847C21.8321 25.3919 22.1913 24.8819 22.0992 24.3441L20.7669 16.5269L26.4061 10.9909C26.5596 10.8394 26.6609 10.6416 26.6916 10.4252C26.7745 9.88432 26.4 9.38358 25.8628 9.30321Z" fill="#FEA250"/>
<path d="M71.8628 9.30321L64.0685 8.16263L60.5842 1.05021C60.4891 0.855478 60.3325 0.697836 60.1391 0.602015C59.6541 0.360916 59.0647 0.561832 58.8221 1.05021L55.3379 8.16263L47.5436 9.30321C47.3287 9.33412 47.1322 9.43612 46.9818 9.59068C46.8 9.77888 46.6998 10.0321 46.7032 10.2946C46.7067 10.5572 46.8135 10.8076 47.0002 10.9909L52.6395 16.5269L51.3072 24.3441C51.276 24.5259 51.2959 24.7129 51.3649 24.8839C51.4338 25.0549 51.549 25.203 51.6973 25.3115C51.8456 25.4199 52.0211 25.4844 52.2039 25.4975C52.3867 25.5106 52.5695 25.4719 52.7316 25.3857L59.7032 21.6951L66.6748 25.3857C66.8651 25.4877 67.0861 25.5217 67.2979 25.4847C67.8321 25.3919 68.1913 24.8819 68.0992 24.3441L66.7669 16.5269L72.4061 10.9909C72.5596 10.8394 72.6609 10.6416 72.6916 10.4252C72.7745 9.88432 72.4 9.38358 71.8628 9.30321Z" fill="#FEA250"/>
<path d="M117.863 9.30321L110.068 8.16263L106.584 1.05021C106.489 0.855478 106.333 0.697836 106.139 0.602015C105.654 0.360916 105.065 0.561832 104.822 1.05021L101.338 8.16263L93.5436 9.30321C93.3287 9.33412 93.1322 9.43612 92.9818 9.59068C92.8 9.77888 92.6998 10.0321 92.7032 10.2946C92.7067 10.5572 92.8135 10.8076 93.0002 10.9909L98.6395 16.5269L97.3072 24.3441C97.276 24.5259 97.2959 24.7129 97.3649 24.8839C97.4338 25.0549 97.549 25.203 97.6973 25.3115C97.8456 25.4199 98.0211 25.4844 98.2039 25.4975C98.3867 25.5106 98.5695 25.4719 98.7316 25.3857L105.703 21.6951L112.675 25.3857C112.865 25.4877 113.086 25.5217 113.298 25.4847C113.832 25.3919 114.191 24.8819 114.099 24.3441L112.767 16.5269L118.406 10.9909C118.56 10.8394 118.661 10.6416 118.692 10.4252C118.775 9.88432 118.4 9.38358 117.863 9.30321Z" fill="#FEA250"/>
<path d="M163.863 9.30321L156.068 8.16263L152.584 1.05021C152.489 0.855478 152.333 0.697836 152.139 0.602015C151.654 0.360916 151.065 0.561832 150.822 1.05021L147.338 8.16263L139.544 9.30321C139.329 9.33412 139.132 9.43612 138.982 9.59068C138.8 9.77888 138.7 10.0321 138.703 10.2946C138.707 10.5572 138.813 10.8076 139 10.9909L144.64 16.5269L143.307 24.3441C143.276 24.5259 143.296 24.7129 143.365 24.8839C143.434 25.0549 143.549 25.203 143.697 25.3115C143.846 25.4199 144.021 25.4844 144.204 25.4975C144.387 25.5106 144.57 25.4719 144.732 25.3857L151.703 21.6951L158.675 25.3857C158.865 25.4877 159.086 25.5217 159.298 25.4847C159.832 25.3919 160.191 24.8819 160.099 24.3441L158.767 16.5269L164.406 10.9909C164.56 10.8394 164.661 10.6416 164.692 10.4252C164.775 9.88432 164.4 9.38358 163.863 9.30321Z" fill="#FEA250"/>
</svg>
