<svg width="30" height="25" viewBox="0 0 30 25" fill="none" xmlns="http://www.w3.org/2000/svg">
<path d="M29.6411 3.54294C28.5632 4.0329 27.4013 4.35488 26.1974 4.50886C27.4293 3.76692 28.3812 2.59102 28.8292 1.17713C27.6673 1.87707 26.3794 2.36703 25.0215 2.64701C23.9156 1.44311 22.3617 0.743164 20.5979 0.743164C17.3081 0.743164 14.6203 3.43095 14.6203 6.74869C14.6203 7.22465 14.6763 7.68661 14.7743 8.12058C9.79072 7.8686 5.35307 5.47479 2.39931 1.84908C1.88135 2.73101 1.58737 3.76692 1.58737 4.85884C1.58737 6.94467 2.63729 8.79252 4.26116 9.84244C3.26724 9.84244 2.34331 9.56246 1.53138 9.1425V9.18449C1.53138 12.0963 3.60321 14.5321 6.34699 15.078C5.46608 15.3191 4.54127 15.3526 3.64521 15.176C4.02543 16.3694 4.77007 17.4136 5.77446 18.1619C6.77885 18.9102 7.99249 19.3249 9.24476 19.3477C7.12201 21.0282 4.49073 21.9365 1.78336 21.9235C1.30739 21.9235 0.831431 21.8955 0.355469 21.8395C3.01526 23.5473 6.17901 24.5413 9.56674 24.5413C20.5979 24.5413 26.6594 15.386 26.6594 7.44863C26.6594 7.18265 26.6594 6.93067 26.6454 6.66469C27.8213 5.82476 28.8292 4.76084 29.6411 3.54294Z" fill="#0192FE"/>
</svg>
