<svg width="285" height="60" viewBox="0 0 285 60" fill="none" xmlns="http://www.w3.org/2000/svg">
<circle cx="30" cy="30" r="20" fill="#0192FE"/>
<rect x="20.7461" y="20.7461" width="5.97015" height="5.97015" rx="1.19403" fill="#F9FAFF"/>
<rect x="28.5078" y="20.7461" width="10.1493" height="5.97015" rx="1.19403" fill="#F9FAFF"/>
<rect x="30.2988" y="28.5073" width="5.97015" height="5.97015" rx="1.19403" fill="#5BB9FF"/>
<rect x="20.7461" y="28.5073" width="7.76119" height="10.7463" rx="1.19403" fill="#F9FAFF"/>
<path d="M68.304 43V19.16H84.208V23H72.656V29.592H82.768V33.432H72.656V43H68.304ZM96.238 43.384C94.4033 43.384 92.7713 43 91.342 42.232C89.934 41.464 88.8247 40.408 88.014 39.064C87.2033 37.72 86.798 36.1947 86.798 34.488V19.16H91.15V34.264C91.15 35.2453 91.3633 36.1307 91.79 36.92C92.238 37.7093 92.846 38.328 93.614 38.776C94.382 39.2027 95.2567 39.416 96.238 39.416C97.2407 39.416 98.1153 39.2027 98.862 38.776C99.63 38.328 100.227 37.7093 100.654 36.92C101.102 36.1307 101.326 35.2453 101.326 34.264V19.16H105.678V34.488C105.678 36.1947 105.273 37.72 104.462 39.064C103.651 40.408 102.531 41.464 101.102 42.232C99.694 43 98.0727 43.384 96.238 43.384ZM114.247 43V23H108.071V19.16H124.711V23H118.631V43H114.247ZM136.551 43.384C134.716 43.384 133.084 43 131.655 42.232C130.247 41.464 129.137 40.408 128.327 39.064C127.516 37.72 127.111 36.1947 127.111 34.488V19.16H131.463V34.264C131.463 35.2453 131.676 36.1307 132.103 36.92C132.551 37.7093 133.159 38.328 133.927 38.776C134.695 39.2027 135.569 39.416 136.551 39.416C137.553 39.416 138.428 39.2027 139.175 38.776C139.943 38.328 140.54 37.7093 140.967 36.92C141.415 36.1307 141.639 35.2453 141.639 34.264V19.16H145.991V34.488C145.991 36.1947 145.585 37.72 144.775 39.064C143.964 40.408 142.844 41.464 141.415 42.232C140.007 43 138.385 43.384 136.551 43.384ZM150.335 43V19.16H159.199C160.821 19.16 162.25 19.4587 163.487 20.056C164.746 20.632 165.727 21.4853 166.431 22.616C167.135 23.7253 167.487 25.08 167.487 26.68C167.487 28.3227 167.093 29.72 166.303 30.872C165.535 32.024 164.49 32.8773 163.167 33.432L168.639 43H163.711L157.855 32.536L160.671 34.2H154.687V43H150.335ZM154.687 30.36H159.263C160.053 30.36 160.735 30.2107 161.311 29.912C161.887 29.592 162.335 29.1547 162.655 28.6C162.975 28.0453 163.135 27.4053 163.135 26.68C163.135 25.9333 162.975 25.2933 162.655 24.76C162.335 24.2053 161.887 23.7787 161.311 23.48C160.735 23.16 160.053 23 159.263 23H154.687V30.36ZM180.004 43.384C178.489 43.384 177.081 43.1067 175.78 42.552C174.5 41.9973 173.39 41.2293 172.452 40.248C171.534 39.2453 170.862 38.0827 170.436 36.76L174.052 35.192C174.628 36.5573 175.46 37.6347 176.548 38.424C177.636 39.192 178.862 39.576 180.228 39.576C180.996 39.576 181.657 39.4587 182.212 39.224C182.788 38.968 183.225 38.6267 183.524 38.2C183.844 37.7733 184.004 37.2613 184.004 36.664C184.004 35.96 183.79 35.384 183.364 34.936C182.958 34.4667 182.34 34.104 181.508 33.848L176.932 32.376C175.076 31.8 173.678 30.936 172.74 29.784C171.801 28.632 171.332 27.2773 171.332 25.72C171.332 24.3547 171.662 23.1493 172.324 22.104C173.006 21.0587 173.945 20.248 175.14 19.672C176.356 19.0747 177.742 18.776 179.3 18.776C180.729 18.776 182.041 19.032 183.236 19.544C184.43 20.0347 185.454 20.728 186.308 21.624C187.182 22.4987 187.833 23.5333 188.26 24.728L184.676 26.328C184.206 25.1333 183.502 24.216 182.564 23.576C181.625 22.9147 180.537 22.584 179.3 22.584C178.574 22.584 177.934 22.712 177.38 22.968C176.825 23.2027 176.388 23.544 176.068 23.992C175.769 24.4187 175.62 24.9307 175.62 25.528C175.62 26.1893 175.833 26.776 176.26 27.288C176.686 27.7787 177.337 28.1627 178.212 28.44L182.596 29.816C184.494 30.4347 185.913 31.288 186.852 32.376C187.812 33.464 188.292 34.808 188.292 36.408C188.292 37.7733 187.94 38.9787 187.236 40.024C186.532 41.0693 185.561 41.8907 184.324 42.488C183.086 43.0853 181.646 43.384 180.004 43.384ZM192.21 43V19.16H201.106C202.728 19.16 204.157 19.4587 205.394 20.056C206.653 20.632 207.634 21.4853 208.338 22.616C209.042 23.7253 209.394 25.08 209.394 26.68C209.394 28.2587 209.032 29.6133 208.306 30.744C207.602 31.8533 206.632 32.7067 205.394 33.304C204.157 33.9013 202.728 34.2 201.106 34.2H196.562V43H192.21ZM196.562 30.36H201.17C201.96 30.36 202.642 30.2107 203.218 29.912C203.794 29.592 204.242 29.1547 204.562 28.6C204.882 28.0453 205.042 27.4053 205.042 26.68C205.042 25.9333 204.882 25.2933 204.562 24.76C204.242 24.2053 203.794 23.7787 203.218 23.48C202.642 23.16 201.96 23 201.17 23H196.562V30.36ZM209.102 43L217.326 19.16H222.958L231.182 43H226.446L224.75 37.88H215.534L213.806 43H209.102ZM216.782 34.04H223.502L219.534 22.168H220.75L216.782 34.04ZM244.067 43.384C242.36 43.384 240.781 43.0747 239.331 42.456C237.901 41.8373 236.643 40.9733 235.555 39.864C234.488 38.7547 233.656 37.4533 233.059 35.96C232.461 34.4667 232.163 32.8347 232.163 31.064C232.163 29.2933 232.451 27.6613 233.027 26.168C233.624 24.6533 234.456 23.352 235.523 22.264C236.611 21.1547 237.88 20.3013 239.331 19.704C240.781 19.0853 242.36 18.776 244.067 18.776C245.773 18.776 247.299 19.064 248.642 19.64C250.008 20.216 251.16 20.984 252.099 21.944C253.037 22.8827 253.709 23.9173 254.115 25.048L250.211 26.872C249.763 25.6773 249.005 24.696 247.939 23.928C246.872 23.1387 245.581 22.744 244.067 22.744C242.573 22.744 241.251 23.096 240.099 23.8C238.968 24.504 238.083 25.4747 237.443 26.712C236.824 27.9493 236.515 29.4 236.515 31.064C236.515 32.728 236.824 34.1893 237.443 35.448C238.083 36.6853 238.968 37.656 240.099 38.36C241.251 39.064 242.573 39.416 244.067 39.416C245.581 39.416 246.872 39.032 247.939 38.264C249.005 37.4747 249.763 36.4827 250.211 35.288L254.115 37.112C253.709 38.2427 253.037 39.288 252.099 40.248C251.16 41.1867 250.008 41.944 248.642 42.52C247.299 43.096 245.773 43.384 244.067 43.384ZM257.648 43V19.16H273.488V23H262V29.112H272.848V32.952H262V39.16H273.488V43H257.648Z" fill="#0192FE"/>
</svg>
